{
  "accessors": [
    {
      "bufferView": 2,
      "componentType": 5126,
      "count": 32,
      "max": [
        1.0,
        0.0,
        1.0
      ],
      "min": [
        -1.0,
        0.0,
        -1.0
      ],
      "type": "VEC3"
    },
    {
      "bufferView": 2,
      "byteOffset": 384,
      "componentType": 5126,
      "count": 32,
      "max": [
        0.0,
        1.0,
        -0.0
      ],
      "min": [
        0.0,
        1.0,
        -0.0
      ],
      "type": "VEC3"
    },
    {
      "bufferView": 1,
      "componentType": 5126,
      "count": 32,
      "max": [
        1.0,
        1.0
      ],
      "min": [
        0.0,
        0.0
      ],
      "type": "VEC2"
    },
    {
      "bufferView": 0,
      "componentType": 5125,
      "count": 90,
      "type": "SCALAR"
    },
    {
      "bufferView": 2,
      "byteOffset": 768,
      "componentType": 5126,
      "count": 32,
      "max": [
        1.0,
        0.0,
        1.0
      ],
      "min": [
        -1.0,
        0.0,
        -1.0
      ],
      "type": "VEC3"
    },
    {
      "bufferView": 2,
      "byteOffset": 1152,
      "componentType": 5126,
      "count": 32,
      "max": [
        0.0,
        1.0,
        -0.0
      ],
      "min": [
        0.0,
        1.0,
        -0.0
      ],
      "type": "VEC3"
    },
    {
      "bufferView": 1,
      "byteOffset": 256,
      "componentType": 5126,
      "count": 32,
      "max": [
        1.0,
        1.0
      ],
      "min": [
        0.0,
        0.0
      ],
      "type": "VEC2"
    },
    {
      "bufferView": 0,
      "byteOffset": 360,
      "componentType": 5125,
      "count": 90,
      "type": "SCALAR"
    },
    {
      "bufferView": 2,
      "byteOffset": 1536,
      "componentType": 5126,
      "count": 3864,
      "max": [
        10.746138572692871,
        1.3663820028305054,
        1.1167395114898682
      ],
      "min": [
        -4.393956184387207,
        -1.35994553565979,
        -3.6297833919525146
      ],
      "type": "VEC3"
    },
    {
      "bufferView": 2,
      "byteOffset": 47904,
      "componentType": 5126,
      "count": 3864,
      "max": [
        0.9999470114707947,
        1.0,
        1.0
      ],
      "min": [
        -0.9999470114707947,
        -1.0,
        -1.0
      ],
      "type": "VEC3"
    },
    {
      "bufferView": 1,
      "byteOffset": 512,
      "componentType": 5126,
      "count": 3864,
      "max": [
        1.0,
        1.0
      ],
      "min": [
        0.0,
        0.0
      ],
      "type": "VEC2"
    },
    {
      "bufferView": 0,
      "byteOffset": 720,
      "componentType": 5125,
      "count": 15648,
      "type": "SCALAR"
    },
    {
      "bufferView": 2,
      "byteOffset": 94272,
      "componentType": 5126,
      "count": 1494,
      "max": [
        8.066834449768066,
        0.9015350341796875,
        0.6214832067489624
      ],
      "min": [
        2.3247101306915283,
        -0.8930951356887817,
        -5.945524215698242
      ],
      "type": "VEC3"
    },
    {
      "bufferView": 2,
      "byteOffset": 112200,
      "componentType": 5126,
      "count": 1494,
      "max": [
        0.9999470114707947,
        1.0,
        1.0
      ],
      "min": [
        -0.9999470114707947,
        -1.0,
        -1.0
      ],
      "type": "VEC3"
    },
    {
      "bufferView": 1,
      "byteOffset": 31424,
      "componentType": 5126,
      "count": 1494,
      "max": [
        1.0,
        1.0
      ],
      "min": [
        0.0,
        0.0
      ],
      "type": "VEC2"
    },
    {
      "bufferView": 0,
      "byteOffset": 63312,
      "componentType": 5125,
      "count": 6528,
      "type": "SCALAR"
    },
    {
      "bufferView": 2,
      "byteOffset": 130128,
      "componentType": 5126,
      "count": 4080,
      "max": [
        12.277236938476563,
        2.9319682121276855,
        2.2539634704589844
      ],
      "min": [
        -6.046802997589111,
        -2.925318956375122,
        -4.767007350921631
      ],
      "type": "VEC3"
    },
    {
      "bufferView": 2,
      "byteOffset": 179088,
      "componentType": 5126,
      "count": 4080,
      "max": [
        0.9999470114707947,
        1.0,
        1.0
      ],
      "min": [
        -0.9999470114707947,
        -1.0,
        -1.0
      ],
      "type": "VEC3"
    },
    {
      "bufferView": 1,
      "byteOffset": 43376,
      "componentType": 5126,
      "count": 4080,
      "max": [
        1.0,
        1.0
      ],
      "min": [
        0.0,
        0.0
      ],
      "type": "VEC2"
    },
    {
      "bufferView": 0,
      "byteOffset": 89424,
      "componentType": 5125,
      "count": 18816,
      "type": "SCALAR"
    },
    {
      "bufferView": 2,
      "byteOffset": 228048,
      "componentType": 5126,
      "count": 358,
      "max": [
        0.41880002617836,
        0.0,
        0.0018000000854954123
      ],
      "min": [
        0.015000000596046448,
        0.0,
        -0.1364000141620636
      ],
      "type": "VEC3"
    },
    {
      "bufferView": 2,
      "byteOffset": 232344,
      "componentType": 5126,
      "count": 358,
      "max": [
        0.0,
        1.0,
        -0.0
      ],
      "min": [
        0.0,
        1.0,
        -0.0
      ],
      "type": "VEC3"
    },
    {
      "bufferView": 1,
      "byteOffset": 76016,
      "componentType": 5126,
      "count": 358,
      "max": [
        1.0,
        0.0
      ],
      "min": [
        0.0,
        0.0
      ],
      "type": "VEC2"
    },
    {
      "bufferView": 0,
      "byteOffset": 164688,
      "componentType": 5125,
      "count": 1044,
      "type": "SCALAR"
    },
    {
      "bufferView": 2,
      "byteOffset": 236640,
      "componentType": 5126,
      "count": 5979,
      "max": [
        1.4020001888275146,
        0.0,
        1.0460000038146973
      ],
      "min": [
        0.0,
        0.0,
        -0.13820001482963562
      ],
      "type": "VEC3"
    },
    {
      "bufferView": 2,
      "byteOffset": 308388,
      "componentType": 5126,
      "count": 5979,
      "max": [
        0.0,
        1.0,
        -0.0
      ],
      "min": [
        0.0,
        1.0,
        -0.0
      ],
      "type": "VEC3"
    },
    {
      "bufferView": 1,
      "byteOffset": 78880,
      "componentType": 5126,
      "count": 5979,
      "max": [
        1.0,
        0.0
      ],
      "min": [
        0.0,
        0.0
      ],
      "type": "VEC2"
    },
    {
      "bufferView": 0,
      "byteOffset": 168864,
      "componentType": 5125,
      "count": 17703,
      "type": "SCALAR"
    },
    {
      "bufferView": 2,
      "byteOffset": 380136,
      "componentType": 5126,
      "count": 899,
      "max": [
        0.9420000910758972,
        0.0,
        0.04600000008940697
      ],
      "min": [
        0.015000000596046448,
        0.0,
        -0.1364000141620636
      ],
      "type": "VEC3"
    },
    {
      "bufferView": 2,
      "byteOffset": 390924,
      "componentType": 5126,
      "count": 899,
      "max": [
        0.0,
        1.0,
        -0.0
      ],
      "min": [
        0.0,
        1.0,
        -0.0
      ],
      "type": "VEC3"
    },
    {
      "bufferView": 1,
      "byteOffset": 126712,
      "componentType": 5126,
      "count": 899,
      "max": [
        1.0,
        0.0
      ],
      "min": [
        0.0,
        0.0
      ],
      "type": "VEC2"
    },
    {
      "bufferView": 0,
      "byteOffset": 239676,
      "componentType": 5125,
      "count": 2661,
      "type": "SCALAR"
    }
  ],
  "asset": {
    "extras": {
      "author": "Vera4Art (https://sketchfab.com/Elvera.Viljoen)",
      "license": "CC-BY-4.0 (http://creativecommons.org/licenses/by/4.0/)",
      "source": "https://sketchfab.com/3d-models/ester-b339dcd5bbe54190b64124e072a5409f",
      "title": "Ester"
    },
    "generator": "Sketchfab-14.13.0",
    "version": "2.0"
  },
  "bufferViews": [
    {
      "buffer": 0,
      "byteLength": 250320,
      "name": "floatBufferViews",
      "target": 34963
    },
    {
      "buffer": 0,
      "byteLength": 133904,
      "byteOffset": 250320,
      "byteStride": 8,
      "name": "floatBufferViews",
      "target": 34962
    },
    {
      "buffer": 0,
      "byteLength": 401712,
      "byteOffset": 384224,
      "byteStride": 12,
      "name": "floatBufferViews",
      "target": 34962
    }
  ],
  "buffers": [
    {
      "byteLength": 785936,
      "uri": "scene.bin"
    }
  ],
  "materials": [
    {
      "doubleSided": true,
      "name": "yellow",
      "pbrMetallicRoughness": {
        "baseColorFactor": [
          0.8,
          0.678787,
          0.00217886,
          1.0
        ],
        "metallicFactor": 0.0,
        "roughnessFactor": 0.5
      }
    },
    {
      "doubleSided": true,
      "name": "grey",
      "pbrMetallicRoughness": {
        "baseColorFactor": [
          0.1424,
          0.1424,
          0.1424,
          1.0
        ],
        "metallicFactor": 0.0,
        "roughnessFactor": 0.8
      }
    },
    {
      "doubleSided": true,
      "name": "material",
      "pbrMetallicRoughness": {
        "baseColorFactor": [
          1.0,
          0.0054335,
          0.00306731,
          1.0
        ],
        "metallicFactor": 0.0,
        "roughnessFactor": 0.8
      }
    },
    {
      "doubleSided": true,
      "name": "white",
      "pbrMetallicRoughness": {
        "metallicFactor": 0.0,
        "roughnessFactor": 0.8
      }
    },
    {
      "doubleSided": true,
      "name": "black",
      "pbrMetallicRoughness": {
        "baseColorFactor": [
          0.0020634,
          0.0020634,
          0.0020634,
          1.0
        ],
        "metallicFactor": 0.0,
        "roughnessFactor": 0.5
      }
    },
    {
      "doubleSided": true,
      "name": "black.001",
      "pbrMetallicRoughness": {
        "baseColorFactor": [
          0.0020634,
          0.0020634,
          0.0020634,
          1.0
        ],
        "metallicFactor": 0.0,
        "roughnessFactor": 0.5
      }
    }
  ],
  "meshes": [
    {
      "name": "Object_0",
      "primitives": [
        {
          "attributes": {
            "NORMAL": 1,
            "POSITION": 0,
            "TEXCOORD_0": 2
          },
          "indices": 3,
          "material": 0,
          "mode": 4
        }
      ]
    },
    {
      "name": "Object_1",
      "primitives": [
        {
          "attributes": {
            "NORMAL": 5,
            "POSITION": 4,
            "TEXCOORD_0": 6
          },
          "indices": 7,
          "material": 0,
          "mode": 4
        }
      ]
    },
    {
      "name": "Object_2",
      "primitives": [
        {
          "attributes": {
            "NORMAL": 9,
            "POSITION": 8,
            "TEXCOORD_0": 10
          },
          "indices": 11,
          "material": 1,
          "mode": 4
        }
      ]
    },
    {
      "name": "Object_3",
      "primitives": [
        {
          "attributes": {
            "NORMAL": 13,
            "POSITION": 12,
            "TEXCOORD_0": 14
          },
          "indices": 15,
          "material": 2,
          "mode": 4
        }
      ]
    },
    {
      "name": "Object_4",
      "primitives": [
        {
          "attributes": {
            "NORMAL": 17,
            "POSITION": 16,
            "TEXCOORD_0": 18
          },
          "indices": 19,
          "material": 3,
          "mode": 4
        }
      ]
    },
    {
      "name": "Object_5",
      "primitives": [
        {
          "attributes": {
            "NORMAL": 21,
            "POSITION": 20,
            "TEXCOORD_0": 22
          },
          "indices": 23,
          "material": 4,
          "mode": 4
        }
      ]
    },
    {
      "name": "Object_6",
      "primitives": [
        {
          "attributes": {
            "NORMAL": 25,
            "POSITION": 24,
            "TEXCOORD_0": 26
          },
          "indices": 27,
          "material": 5,
          "mode": 4
        }
      ]
    },
    {
      "name": "Object_7",
      "primitives": [
        {
          "attributes": {
            "NORMAL": 29,
            "POSITION": 28,
            "TEXCOORD_0": 30
          },
          "indices": 31,
          "material": 5,
          "mode": 4
        }
      ]
    }
  ],
  "nodes": [
    {
      "children": [
        1
      ],
      "matrix": [
        1.0,
        0.0,
        0.0,
        0.0,
        0.0,
        2.220446049250313e-16,
        -1.0,
        0.0,
        0.0,
        1.0,
        2.220446049250313e-16,
        0.0,
        0.0,
        0.0,
        0.0,
        1.0
      ],
      "name": "Sketchfab_model"
    },
    {
      "children": [
        2
      ],
      "name": "root"
    },
    {
      "children": [
        3,
        5,
        7,
        11,
        13,
        15
      ],
      "matrix": [
        1.0,
        0.0,
        0.0,
        0.0,
        0.0,
        2.220446049250313e-16,
        1.0,
        0.0,
        0.0,
        -1.0,
        2.220446049250313e-16,
        0.0,
        0.0,
        0.0,
        0.0,
        1.0
      ],
      "name": "GLTF_SceneRootNode"
    },
    {
      "children": [
        4
      ],
      "matrix": [
        0.4943240284919739,
        0.0,
        0.0,
        0.0,
        0.0,
        -8.333680120414735e-08,
        0.4943240284919668,
        0.0,
        0.0,
        -0.4943240284919668,
        -8.333680120414735e-08,
        0.0,
        -0.544342041015625,
        -0.0488814041018486,
        -0.23808173835277557,
        1.0
      ],
      "name": "Circle_0"
    },
    {
      "mesh": 0,
      "name": "Object_4"
    },
    {
      "children": [
        6
      ],
      "matrix": [
        0.4943240284919739,
        0.0,
        0.0,
        0.0,
        0.0,
        -8.333680120414735e-08,
        0.4943240284919668,
        0.0,
        0.0,
        -0.4943240284919668,
        -8.333680120414735e-08,
        0.0,
        1.0350703001022339,
        -0.0753287523984909,
        -0.23808173835277557,
        1.0
      ],
      "name": "Circle.001_3"
    },
    {
      "mesh": 1,
      "name": "Object_6"
    },
    {
      "children": [
        8,
        9,
        10
      ],
      "matrix": [
        -0.09927430003881436,
        4.339417500142715e-09,
        4.339416768571676e-09,
        0.0,
        -4.339417500142715e-09,
        -1.6736395737565723e-08,
        -0.09927430003881303,
        0.0,
        -4.339416768571676e-09,
        -0.09927430003881303,
        1.6736395924933967e-08,
        0.0,
        -0.030088327825069427,
        -0.43349504470825195,
        0.0,
        1.0
      ],
      "name": "methyl propanoate_5"
    },
    {
      "mesh": 2,
      "name": "Object_8"
    },
    {
      "mesh": 3,
      "name": "Object_9"
    },
    {
      "mesh": 4,
      "name": "Object_10"
    },
    {
      "children": [
        12
      ],
      "matrix": [
        1.0,
        0.0,
        0.0,
        0.0,
        0.0,
        -1.685873969314855e-07,
        0.9999999999999858,
        0.0,
        0.0,
        -0.9999999999999858,
        -1.685873969314855e-07,
        0.0,
        -0.7474695444107056,
        0.5156395435333252,
        0.0,
        1.0
      ],
      "name": "Text.003_6"
    },
    {
      "mesh": 5,
      "name": "Object_12"
    },
    {
      "children": [
        14
      ],
      "matrix": [
        0.5057826638221741,
        0.0,
        0.0,
        0.0,
        0.0,
        -8.526858270685295e-08,
        0.5057826638221669,
        0.0,
        0.0,
        -0.5057826638221669,
        -8.526858270685295e-08,
        0.0,
        0.6956118941307068,
        0.14472007751464844,
        0.0,
        1.0
      ],
      "name": "Text.004_7"
    },
    {
      "mesh": 6,
      "name": "Object_14"
    },
    {
      "children": [
        16
      ],
      "matrix": [
        0.5057826638221741,
        0.0,
        0.0,
        0.0,
        0.0,
        -8.526858270685295e-08,
        0.5057826638221669,
        0.0,
        0.0,
        -0.5057826638221669,
        -8.526858270685295e-08,
        0.0,
        -0.7370947599411011,
        0.22541524469852448,
        0.0,
        1.0
      ],
      "name": "Text.005_8"
    },
    {
      "mesh": 7,
      "name": "Object_16"
    }
  ],
  "scene": 0,
  "scenes": [
    {
      "name": "Sketchfab_Scene",
      "nodes": [
        0
      ]
    }
  ]
}
